. 
  
http://www.torrentday.com/        :     The Hottest Private Tracker On The Net!!!


               www . TorrentDay . Com 
(((((((((((((= Enjoy No RAR releases =))))))))))))))))))))


...................................NFO:....................................


[b]Sutures 2009 DVDRip XviD AC3-LEGi0N

[img]http://leetleech.org/images/48874973695367351744.png[/img]
[color=red]General[/color]
Format: AVI
File size: 1.37 GiB
Duration: 1h 20mn
Overall bit rate: 2 421 Kbps
IMDb Rating: 4.7/10   53 votes
Genre:  Horror | Thriller
Release: N/A
IMDb Link: http://www.imdb.com/title/tt1209361/
Source: NTSC DVDR-KART3LDVD

[color=red]Video[/color]
Format: MPEG-4 Visual
Format profile : Advanced Simple@L5
Format settings, QPel: No
Format settings, GMC: No warppoints
Format settings, Matrix: Default (H.263)
Muxing mode: Packed bitstream
Codec ID: XVID
Bit rate: 1 963 Kbps
Width: 720 pixels
Height: 400 pixels
Display aspect ratio: 16:9
Frame rate: 23.976 fps
Chroma subsampling: 4:2:0
Bit depth: 8 bits
Scan type: Progressive
Bits/(Pixel*Frame): 0.284
Stream size: 1.11 GiB (81%)

[color=red]Audio[/color]
Format: AC-3
Bit rate mode: Constant
Bit rate: 448 Kbps
Channel(s): 6 channels
Sampling rate: 48.0 KHz
Stream size: 260 MiB (19%)


[img]http://leetleech.org/images/89524873606771859129.png[/img]
A group of longtime friends converge on a fatal course with destiny when 
they cross paths with Alexander Tatum, a mercenary surgeon. He is a hunter 
with the keen skill of one who has also been hunted. Prey turned predator. 
The victims quickly realize that Alexander is just the beginning of their problems, 
as they find themselves enmeshed in a fight for survival against a sociopath business 
man and his demonic staff, who will stop at nothing to prevail in the sale of Black Market Body Parts.

[color=red]Tagline:[color]
Somewhere between Heaven & Hell lie the nightmares of man's transgressions 
against himself. Against his children... and their children..

[img]http://leetleech.org/images/84434050717770922575.png[/img]
Andrew Prine	 ...	Dr. Hopkins
Jason London	 ...	Detective Zane
Carlos Lauchu	 ...	Alexander Tatum
Allison Lange	 ...	Sienna
B.J. Britt	 ...	Scott
Azie Tesfai	 ...	Kristen
Nick Holmes	 ...	Jason
Kate French	 ...	Shannon
C.J. Thomason	 ...	Ben
Jeff Burr	 ...	Dr. Sanger
Lisette Bross	 ...	Dr. Christensen
Kevin Strom	 ...	Cooper
Joe Unger	 ...	Sheriff Baxter
Walt Osborne	 ...	Officer Tatopoulos
Timothy Muskatell	 ...	Ronnie Moon

[color=red]GREETZ[/color]
Noir | xXTHORNXx | bigimac | LUSi |

kempas | KaN1vE | mike160 | skillz |

Lungbuster | Sheikh | dillon1369 |

FLAWL3SS | AND ALL P2P!

[color=red]SAMPLE INCLUDED![/color][/b]

[img]http://leetleech.org/images/95521316153253938506.png[/img]
[img]http://leetleech.org/images/12755021538703799215.png[/img]